<svg preserveAspectRatio="none" width="100%" height="100%" overflow="visible" style="display: block;" viewBox="0 0 163.979 115.373" fill="none" xmlns="http://www.w3.org/2000/svg">
<g id="Union">
<path d="M160.14 3.27122L116.901 48.2868L133.104 57.3093L134.368 58.0124L132.94 58.24L112.397 61.5075L127.564 105.654L128.295 107.784L126.731 106.164L89.7718 67.8865L4.80012 112.301L2.2845 113.615L4.19954 111.52L66.7376 43.0896L66.8089 43.0115L66.9066 42.9685L159.58 2.46751L161.878 1.4636L160.14 3.27122Z" fill="var(--fill-0, #CBEE4C)"/>
<path d="M160.14 3.27122L159.78 2.92464L159.779 2.92485L160.14 3.27122ZM116.901 48.2868L116.54 47.9405L116.091 48.4082L116.657 48.7237L116.901 48.2868ZM133.104 57.3093L132.861 57.7461L132.861 57.7462L133.104 57.3093ZM134.368 58.0124L134.446 58.5062L135.874 58.2786L134.611 57.5755L134.368 58.0124ZM132.94 58.24L133.018 58.7338L133.018 58.7337L132.94 58.24ZM112.397 61.5075L112.318 61.0138L111.731 61.1072L111.924 61.67L112.397 61.5075ZM127.564 105.654L128.037 105.492L128.037 105.492L127.564 105.654ZM128.295 107.784L127.936 108.131L129.499 109.751L128.768 107.622L128.295 107.784ZM126.731 106.164L126.371 106.511L126.371 106.511L126.731 106.164ZM89.7718 67.8865L90.1315 67.5391L89.8717 67.2701L89.5402 67.4433L89.7718 67.8865ZM4.80012 112.301L5.03167 112.744L5.03174 112.744L4.80012 112.301ZM2.2845 113.615L1.91547 113.278L0 115.373L2.51605 114.058L2.2845 113.615ZM4.19954 111.52L4.56856 111.858L4.56862 111.858L4.19954 111.52ZM66.7376 43.0896L67.1067 43.4269L67.107 43.4266L66.7376 43.0896ZM66.8089 43.0115L66.6075 42.5538L66.5108 42.5964L66.4396 42.6744L66.8089 43.0115ZM66.9066 42.9685L66.7063 42.5103L66.7052 42.5108L66.9066 42.9685ZM159.58 2.46751L159.38 2.00932L159.38 2.00935L159.58 2.46751ZM161.878 1.4636L162.239 1.81017L163.979 0L161.678 1.00542L161.878 1.4636ZM160.14 3.27122L159.779 2.92485L116.54 47.9405L116.901 48.2868L117.261 48.6332L160.501 3.61758L160.14 3.27122ZM116.901 48.2868L116.657 48.7237L132.861 57.7461L133.104 57.3093L133.347 56.8725L117.144 47.85L116.901 48.2868ZM133.104 57.3093L132.861 57.7462L134.124 58.4493L134.368 58.0124L134.611 57.5755L133.347 56.8724L133.104 57.3093ZM134.368 58.0124L134.289 57.5187L132.861 57.7462L132.94 58.24L133.018 58.7337L134.446 58.5062L134.368 58.0124ZM132.94 58.24L132.861 57.7462L112.318 61.0138L112.397 61.5075L112.475 62.0013L133.018 58.7338L132.94 58.24ZM112.397 61.5075L111.924 61.67L127.091 105.816L127.564 105.654L128.037 105.492L112.87 61.3451L112.397 61.5075ZM127.564 105.654L127.091 105.816L127.822 107.946L128.295 107.784L128.768 107.622L128.037 105.492L127.564 105.654ZM128.295 107.784L128.655 107.437L127.09 105.816L126.731 106.164L126.371 106.511L127.936 108.131L128.295 107.784ZM126.731 106.164L127.09 105.816L90.1315 67.5391L89.7718 67.8865L89.4121 68.2338L126.371 106.511L126.731 106.164ZM89.7718 67.8865L89.5402 67.4433L4.56851 111.857L4.80012 112.301L5.03174 112.744L90.0034 68.3296L89.7718 67.8865ZM4.80012 112.301L4.56857 111.857L2.05294 113.172L2.2845 113.615L2.51605 114.058L5.03167 112.744L4.80012 112.301ZM2.2845 113.615L2.65352 113.952L4.56856 111.858L4.19954 111.52L3.83051 111.183L1.91547 113.278L2.2845 113.615ZM4.19954 111.52L4.56862 111.858L67.1067 43.4269L66.7376 43.0896L66.3685 42.7523L3.83045 111.183L4.19954 111.52ZM66.7376 43.0896L67.107 43.4266L67.1782 43.3485L66.8089 43.0115L66.4396 42.6744L66.3683 42.7526L66.7376 43.0896ZM66.8089 43.0115L67.0103 43.4691L67.1079 43.4261L66.9066 42.9685L66.7052 42.5108L66.6075 42.5538L66.8089 43.0115ZM66.9066 42.9685L67.1068 43.4266L159.781 2.92566L159.58 2.46751L159.38 2.00935L66.7063 42.5103L66.9066 42.9685ZM159.58 2.46751L159.781 2.92569L162.078 1.92178L161.878 1.4636L161.678 1.00542L159.38 2.00932L159.58 2.46751ZM161.878 1.4636L161.518 1.11703L159.78 2.92464L160.14 3.27122L160.5 3.61779L162.239 1.81017L161.878 1.4636Z" fill="var(--stroke-0, #EC6C53)"/>
</g>
</svg>
