<svg preserveAspectRatio="none" width="100%" height="100%" overflow="visible" style="display: block;" viewBox="0 0 269.102 268.451" fill="none" xmlns="http://www.w3.org/2000/svg">
<path id="Explosion" d="M122.222 92.1182L122.583 93.1084L123.121 92.2021L169.926 13.374L153.281 100.883L152.978 102.483L154.127 101.33L221.426 33.7822L170.523 116.312L169.612 117.789L171.17 117.023L252.345 77.1016L194.925 133.873L194.251 134.538L195.181 134.719L267.407 148.771L170.753 190.001L170.607 190.062L170.523 190.197L123.011 266.982L113.32 189.898L113.234 189.212L112.609 189.51L38.7197 224.728L102.583 165.378L103.572 164.458L102.223 164.512L3.08789 168.491L81.1514 139.209L82 138.891L81.2783 138.343L1.90918 77.9922L89.0732 92.4395L89.6553 92.5361V2.8291L122.222 92.1182Z" fill="var(--fill-0, #CBEE4C)" stroke="var(--stroke-0, #FE5B3C)"/>
</svg>
