<svg xmlns="http://www.w3.org/2000/svg" width="83" height="32" viewBox="0 0 82.963 32" fill="none">
  <path d="M74.7434 19.4578C74.0627 23.5184 71.8664 25.5556 68.1532 25.5556C65.8717 25.5556 64.1143 24.7241 62.8529 23.0611C61.5915 21.398 60.968 19.0697 60.968 16.0624C60.968 12.9719 61.6201 10.5604 62.9096 8.82804C64.2133 7.09573 66.0131 6.22262 68.3374 6.22262C71.767 6.22262 73.808 7.9688 74.4454 11.4335H82.7787C82.4246 7.91338 80.9362 5.12778 78.3429 3.07666C75.7492 1.02555 72.3905 0 68.2807 0C63.4907 0 59.6356 1.48289 56.7449 4.44867C55.7953 5.4188 55.0156 6.48591 54.3782 7.65004C53.8818 5.33564 52.6775 3.56172 50.7216 2.32828C48.2274 0.776093 45.0529 0 41.1839 0C36.8614 0 33.531 0.803809 31.1784 2.39757C29.6195 3.45084 28.5849 4.80902 28.0606 6.47204C27.6496 5.83458 27.1961 5.22476 26.6859 4.65658C23.9224 1.55219 20.1951 0 15.5184 0C11.0116 0 7.2986 1.52447 4.37915 4.57342C1.45972 7.62236 0 11.489 0 16.1732C0 20.9407 1.44554 24.7657 4.35081 27.6622C7.24191 30.5587 11.0683 32 15.8301 32C19.3873 32 22.4485 31.0992 25.0278 29.2975C26.2182 28.466 27.2386 27.4682 28.0889 26.3317C28.7834 27.5236 29.7895 28.4937 31.1076 29.353C33.8286 31.113 37.2865 31.9861 41.4815 31.9861C45.8749 31.9861 49.3326 31.0715 51.8554 29.2282C53.2868 28.175 54.3211 26.9138 54.9308 25.4309C55.4411 26.1932 56.0361 26.9138 56.7021 27.579C59.579 30.434 63.3913 31.8614 68.1532 31.8614C72.263 31.8614 75.6359 30.7666 78.2577 28.5769C80.8795 26.3872 82.4384 23.3382 82.963 19.43H74.7434V19.4578ZM10.8557 7.85796C12.0887 6.65222 13.6476 6.04244 15.5325 6.04244C17.5308 6.04244 19.0897 6.67996 20.2093 7.94111C21.3289 9.21609 21.9808 10.8376 22.1933 12.8332H8.63073C8.87168 10.7267 9.60863 9.06364 10.8557 7.85796ZM45.7612 25.2924C44.7411 25.9714 43.3663 26.3179 41.6516 26.3179C37.5417 26.3179 35.4017 25.1122 34.5088 21.7445H22.165C20.9604 24.6687 18.863 26.1377 15.8726 26.1377C13.5909 26.1377 11.8195 25.4586 10.5723 24.0866C9.31103 22.7146 8.6591 20.7328 8.63073 18.1135H30.8099V17.2958C30.8099 16.6721 30.7958 16.0624 30.7533 15.4664C30.8808 15.5357 31.0083 15.605 31.1359 15.6743C31.802 16.0069 32.3263 16.2841 32.7232 16.492C33.12 16.7137 33.7577 16.9355 34.608 17.1711C35.4726 17.4067 36.0819 17.573 36.4646 17.67C36.8472 17.767 37.5133 17.9195 38.477 18.1135C39.4407 18.3075 40.0501 18.4461 40.3336 18.5292C40.4469 18.5708 40.617 18.6124 40.8154 18.6401C43.2955 19.1944 44.9963 19.6934 45.9173 20.1646C46.8384 20.6358 47.292 21.4396 47.292 22.5621C47.292 23.6986 46.7817 24.6132 45.7612 25.2924ZM50.1689 14.1499C48.9361 13.6648 47.887 13.3044 47.0226 13.0966C46.1582 12.8887 45.0105 12.6392 43.5789 12.362C43.3805 12.3205 43.0546 12.2651 42.6152 12.1819C40.1351 11.6691 38.4203 11.2118 37.4566 10.7683C36.4929 10.3387 36.0111 9.57644 36.0111 8.4816C36.0111 7.5392 36.4363 6.80467 37.2724 6.27804C38.1085 5.75142 39.2848 5.48809 40.8154 5.48809C42.6152 5.48809 43.9758 5.80684 44.9253 6.43049C45.8607 7.05413 46.4557 8.13511 46.697 9.6596H53.4567C52.8331 11.3642 52.479 13.2352 52.4081 15.2863C51.813 14.8844 51.0619 14.5102 50.1689 14.1499Z" fill="#FE5B3C"/>
</svg>
