<svg width="32" height="32" viewBox="0 0 32 32" fill="none" xmlns="http://www.w3.org/2000/svg">
<g clip-path="url(#clip0_1590_333)">
<path d="M16 32C24.8366 32 32 24.8366 32 16C32 7.16344 24.8366 0 16 0C7.16344 0 0 7.16344 0 16C0 24.8366 7.16344 32 16 32Z" fill="#FE5B3C"/>
<path fill-rule="evenodd" clip-rule="evenodd" d="M7.24236 15.8312C11.9067 13.799 15.017 12.4593 16.5732 11.812C21.0166 9.96384 21.9399 9.64279 22.5417 9.63219C22.674 9.62986 22.97 9.66266 23.1617 9.81821C23.3235 9.94956 23.3681 10.127 23.3894 10.2515C23.4107 10.376 23.4372 10.6597 23.4161 10.8814C23.1753 13.4114 22.1335 19.5509 21.6034 22.3846C21.3791 23.5836 20.9375 23.9856 20.51 24.0249C19.5808 24.1104 18.8752 23.4109 17.9753 22.821C16.5671 21.8979 15.7716 21.3232 14.4047 20.4225C12.825 19.3815 13.849 18.8093 14.7493 17.8743C14.9849 17.6296 19.0787 13.9059 19.158 13.5681C19.1679 13.5258 19.1771 13.3684 19.0835 13.2852C18.99 13.2021 18.8519 13.2305 18.7523 13.2531C18.611 13.2852 16.3614 14.7721 12.0034 17.7139C11.3648 18.1523 10.7864 18.366 10.2682 18.3548C9.69694 18.3424 8.59802 18.0318 7.78109 17.7662C6.77909 17.4405 5.98272 17.2683 6.05206 16.7152C6.08818 16.427 6.48495 16.1324 7.24236 15.8312Z" fill="#75D5FF"/>
</g>
<defs>
<clipPath id="clip0_1590_333">
<rect width="32" height="32" fill="white"/>
</clipPath>
</defs>
</svg>
