<svg preserveAspectRatio="none" width="100%" height="100%" overflow="visible" style="display: block;" viewBox="0 0 249.271 249.271" fill="none" xmlns="http://www.w3.org/2000/svg">
<path id="Star 1" d="M133.31 34.3818L133.57 35.3604L134.188 34.5576L156.399 5.70801L156.569 46.3369L156.574 47.5303L157.421 46.6895L186.002 18.3447L175.746 57.2695L175.442 58.4238L176.478 57.8311L211.42 37.8506L191.44 72.7939L190.848 73.8291L192.002 73.5254L230.925 63.2686L202.583 91.8555L202.007 92.4365L202.788 92.6836L243.982 105.719L208.561 113.084L208.531 114.056L247.368 124.636L208.531 135.216L207.38 135.529L208.411 136.13L243.187 156.4L202.935 156.569L201.741 156.574L202.581 157.421L230.925 186.001L192.002 175.746L190.848 175.442L191.44 176.478L211.42 211.42L176.478 191.44L175.442 190.848L175.746 192.002L186.001 230.925L157.421 202.581L156.277 201.447L156.578 203.029L164.078 242.594L136.085 208.347L135.471 207.595L135.216 208.531L124.52 247.794L112.608 221.304L112.281 220.577L111.77 221.187L92.8721 243.658L92.7021 202.935L92.6973 201.741L91.8506 202.581L63.2695 230.925L73.5254 192.002L73.8291 190.848L72.7939 191.44L37.8506 211.42L57.8311 176.478L58.4238 175.442L57.2695 175.746L18.3447 186.002L46.6895 157.421L47.5303 156.574L46.3369 156.569L6.08398 156.4L40.8604 136.13L41.8906 135.529L40.7402 135.216L1.67188 124.572L35.5596 112.559L36.5283 112.215L35.6592 111.665L5.96094 92.8701L46.3369 92.7021L47.5303 92.6973L46.6895 91.8506L18.3447 63.2686L57.2695 73.5254L58.4238 73.8291L57.8311 72.7939L37.8506 37.8506L72.7939 57.8311L73.8291 58.4238L73.5254 57.2695L63.2686 18.3447L91.8506 46.6895L92.6973 47.5303L92.7021 46.3369L92.8701 6.08496L113.142 40.8604L113.742 41.8906L114.056 40.7402L124.631 1.91895L133.31 34.3818Z" fill="var(--fill-0, #FFD34F)" stroke="var(--stroke-0, #F1583B)"/>
</svg>
