<svg preserveAspectRatio="none" width="100%" height="100%" overflow="visible" style="display: block;" viewBox="0 0 17.376 14.4" fill="none" xmlns="http://www.w3.org/2000/svg">
<path id="Vector" fill-rule="evenodd" clip-rule="evenodd" d="M1.19451 6.1991C5.85883 4.16693 8.96912 2.8272 10.5254 2.17991C14.9687 0.331757 15.892 0.0107141 16.4938 0.000113031C16.6262 -0.00221855 16.9221 0.0305836 17.1138 0.186134C17.2757 0.317478 17.3202 0.494905 17.3415 0.619433C17.3628 0.743962 17.3894 1.02764 17.3683 1.2493C17.1275 3.77927 16.0856 9.91886 15.5556 12.7525C15.3313 13.9515 14.8896 14.3535 14.4621 14.3928C13.533 14.4783 12.8274 13.7788 11.9275 13.1889C10.5193 12.2658 9.72371 11.6912 8.3568 10.7904C6.7771 9.74939 7.80116 9.17724 8.70142 8.24218C8.93703 7.99747 13.0309 4.2738 13.1101 3.93601C13.12 3.89376 13.1292 3.73628 13.0357 3.65313C12.9421 3.56998 12.804 3.59841 12.7044 3.62103C12.5632 3.65308 10.3135 5.14 5.95551 8.08179C5.31696 8.52026 4.73858 8.7339 4.22037 8.72271C3.64909 8.71037 2.55017 8.3997 1.73324 8.13414C0.731234 7.80843 -0.0651365 7.63623 0.0042095 7.08307C0.0403292 6.79495 0.437096 6.5003 1.19451 6.1991Z" fill="var(--fill-0, #233C4E)"/>
</svg>
